# xmcd
#
# Track frame offsets: 
#        150
#        21252
#        33104
#        44591
#        61451
#        76546
#        97238
#        118358
#        133662
#        150990
#        164849
#        182187
#        194870
#
# Disc length: 2899 seconds
#
# Revision: 1
# Processed by: cddbd v1.5.2PL0 Copyright (c) Steve Scherf et al.
# Submitted via: ExactAudioCopyFreeDBPlugin 1.0
#
DISCID=ba0b510d
DTITLE=Trickbag - Tailor Made
DYEAR=2006
DGENRE=Blues
TTITLE0=Trick Bag
TTITLE1=She's My Girl
TTITLE2=License To Drive
TTITLE3=Voodoo Queen
TTITLE4=Help Me Up
TTITLE5=I Tried To Warn You
TTITLE6=True Love
TTITLE7=Comb My Hair
TTITLE8=Two - Time
TTITLE9=Radio King
TTITLE10=Ooh Mademoiselle
TTITLE11=Lovin Angel
TTITLE12=Curly's Night
EXTD=
EXTT0=
EXTT1=
EXTT2=
EXTT3=
EXTT4=
EXTT5=
EXTT6=
EXTT7=
EXTT8=
EXTT9=
EXTT10=
EXTT11=
EXTT12=
PLAYORDER=
